<svg xmlns="http://www.w3.org/2000/svg" xmlns:xlink="http://www.w3.org/1999/xlink" width="100%" height="100%" viewBox="-1.30812 -2.61924 25.6153 27.0066" preserveAspectRatio="xMidYMid meet"  ><rect id="svgEditorBackground" x="0" y="0" width="19" height="19" style="fill: none; stroke: none;"/><rect x="3.2419121265411377" y="8.508219718933105" id="e13_rectangle" style="stroke-width: 1px; vector-effect: non-scaling-stroke; stroke: none;" width="12.2718" height="9.00823" fill="red" rx="2" ry="2" transform="matrix(1.68363 0.000213841 -0.000811867 1.62865 -4.21461 -4.94168)"/><line id="e14_line" x1="6.25956" y1="8.50822" x2="6.25956" y2="5.04347" stroke="black" style="stroke-width: 1px; vector-effect: none; fill: none;" transform="matrix(1.68363 0.000213841 -0.000811867 1.62865 -4.21461 -4.94168)"/><line id="e15_line" x1="12.429" y1="8.50822" x2="12.429" y2="5.04347" stroke="black" style="stroke-width: 1px; vector-effect: none; fill: none;" transform="matrix(1.68363 0.000213841 -0.000811867 1.62865 -4.21461 -4.94168)"/><path stroke="black" id="e16_circleArc" style="fill: none; stroke-width: 1px; vector-effect: none;" transform="matrix(1.68363 0.000213841 -0.000811867 1.62865 -4.21461 -4.94168)" d="M 6.25956 5.06587 a 3.08484 3.08484 0 0 1 6.16942 0.022356"/><circle id="e17_circle" cx="8.976715087890625" cy="10.948736190795898" style="stroke-width: 1px; vector-effect: non-scaling-stroke;" r="1.02969" fill="white" transform="matrix(2.84387 0.000361204 -0.00137135 2.75099 -13.9392 -16.6644)"/><line id="e18_line" x1="9.41133" y1="11.5259" x2="9.38898" y2="15.2365" style="stroke-width: 1.5px; vector-effect: none; fill: none; stroke-linecap: round;" stroke="white" transform="matrix(1.68363 0.000213841 -0.000811867 1.62865 -4.21461 -4.94168)"/></svg>